<svg xmlns="http://www.w3.org/2000/svg" viewBox="0 0 120 120"><defs><style>.cls-1{fill:#13c4a3;}</style></defs><g id="Layer_2" data-name="Layer 2"><g id="Layer_1-2" data-name="Layer 1"><path class="cls-1" d="M102.43,17.57a60,60,0,0,0-84.86,84.86,60,60,0,0,0,84.86-84.86ZM60,4.09a55.92,55.92,0,0,1,54.29,69.28H62.05v-11A21.38,21.38,0,0,0,81.36,41.11V23.89h-2a21.32,21.32,0,0,0-17.26,8.8V21.8h0A12.71,12.71,0,0,0,49.35,10h-2V21.8A12.72,12.72,0,0,0,58,34.33V47.86a21.32,21.32,0,0,0-17.26-8.8h-2v2A21.38,21.38,0,0,0,58,62.36v11H5.71A55.92,55.92,0,0,1,60,4.09ZM78.41,85.65v27.14a55.81,55.81,0,0,1-16.36,3.08V85.65a8.18,8.18,0,1,1,16.36,0ZM49.77,77.47A8.19,8.19,0,0,1,58,85.65v30.22a55.81,55.81,0,0,1-16.36-3.08V85.65A8.19,8.19,0,0,1,49.77,77.47ZM58,30.15A8.6,8.6,0,0,1,51.4,21.8V14.28A8.61,8.61,0,0,1,58,22.64Zm4.1,15.09A17.29,17.29,0,0,1,77.26,28.1v13A17.3,17.3,0,0,1,62.05,58.25Zm-4.23,13a17.3,17.3,0,0,1-15-14.94A17.32,17.32,0,0,1,57.82,58.23ZM6.89,77.47H40.64a12.21,12.21,0,0,0-3.14,8.18v25.53A56.22,56.22,0,0,1,6.89,77.47ZM82.5,111.18V85.65a12.25,12.25,0,0,0-3.13-8.18h33.74A56.22,56.22,0,0,1,82.5,111.18Z"/></g></g></svg>