<svg xmlns="http://www.w3.org/2000/svg" viewBox="0 0 136.85 120"><defs><style>.cls-1{fill:#13c4a3;}</style></defs><g id="Layer_2" data-name="Layer 2"><g id="Layer_1-2" data-name="Layer 1"><path class="cls-1" d="M131.52,58.49l-1.73,7.95L127.62,66l1.49-6.8a13,13,0,0,0-4.12-13l-2.88,13.22-2.58-.57,4.26-19.66a5.58,5.58,0,0,0,.1-.68A4.53,4.53,0,0,0,120.33,33l-.49-.11,5-22.27L94.44,4.36,80.13,15.16l3,24L67.11,53,75.7,66.18l-9.56,7.34L60.91,77l6.18-12.55L59.5,46l5.75-7.33L55.74,16.36,66.07,0,10.9,13.09l5,19.66-.76.19a4.55,4.55,0,0,0-3.34,5.64,5.64,5.64,0,0,0,.13.67l5,19.48-2.56.66L11,46.3a12.93,12.93,0,0,0-3.6,13.11l1.74,6.74L7,66.7l-2-7.88c-2.21,2-6.3,6.62-4.47,13.65L12.78,120l30.2-.08L38.63,102.5c4.86-2.07,17.56-7,29.3-7.15h.43c12.21,0,26.45,6.86,30.89,9.16l-3.53,15.41h30.34l10.46-48c1.55-7.09-2.71-11.53-5-13.46ZM67.86,90.87C57.12,91,46,94.73,39.69,97.21c2.61-4.65,7.23-13.87,5.93-18.9L43.85,71.5,37,45c-1.81-7-11.72-4.77-9.82,2.55l5,19.27c.28,1-2.51,1.77-2.78.72l-13-51.12,40-9.51L50.7,16l9.38,22-5.72,7.29,7.81,19L49.51,90,68.69,77.21l13-10L73,53.8,87.86,41l-3-23.82,10.61-8,23.94,5-12.18,54.3c-.64.64-2.86,0-2.65-.9l4.25-19.45c1.61-7.38-8.37-9.21-9.91-2.16L93.12,72.68l-1.5,6.86C90.41,85.1,96.5,95.41,99,99.36c-6.24-3-19-8.5-30.65-8.5Z"/><path class="cls-1" d="M75.86,38.24l-4.37,1L65.72,14.12l4.37-1Z"/></g></g></svg>