<svg xmlns="http://www.w3.org/2000/svg" viewBox="0 0 157.72 120"><defs><style>.cls-1{fill:none;}.cls-2{fill:#13c4a3;}</style></defs><g id="Layer_2" data-name="Layer 2"><g id="Layer_1-2" data-name="Layer 1"><rect class="cls-1" x="18.86" width="120" height="120"/><path class="cls-2" d="M130.67,38.62H61.28L55.07,104.4h81.81L132.7,60.15h0Z"/><path class="cls-2" d="M105.85,22.45A2.45,2.45,0,0,0,103.41,20H86.55a2.46,2.46,0,0,0-2.46,2.45v5.78h21.76Z"/><path class="cls-2" d="M58.58,36.06h74.79a2.64,2.64,0,0,0,0-5.28H58.58a2.64,2.64,0,0,0,0,5.28Z"/><path class="cls-2" d="M11,38.18,0,59.2a11.92,11.92,0,0,0,11-21Z"/><path class="cls-2" d="M56.29,64.38,18.77,49.17A14.45,14.45,0,0,1,13.5,59.3L54.28,85.61Z"/><path class="cls-2" d="M54.83,107,53.6,120h84.75l-1.23-13Z"/><path class="cls-2" d="M153.44,52.13c-5.79-4.13-15.92-.78-18.9.35l.52,5.6c3.32-1.49,10.69-4.21,14.94-1.19,2.64,1.86,3.57,5.46,2.76,10.68h0A36.88,36.88,0,0,1,138.08,90l.53,5.61c16.73-10.85,19-29.88,19-30.08.51-6.54-.89-11.07-4.18-13.41Z"/></g></g></svg>