<svg xmlns="http://www.w3.org/2000/svg" viewBox="0 0 113.9 120"><defs><style>.cls-1,.cls-2{fill:#13c4a3;}.cls-2{fill-rule:evenodd;}</style></defs><g id="Layer_2" data-name="Layer 2"><g id="Layer_1-2" data-name="Layer 1"><path class="cls-1" d="M93.56,84.41V64.07H71.19a20.34,20.34,0,1,1-40.68,0H0V43.73H38.64V27.46H63.05V43.73H99.66a12.2,12.2,0,0,1,12.2,12.2V84.41"/><path class="cls-2" d="M47.79,0a3,3,0,0,0-2.51,1.41,7,7,0,0,1,2.81,1.7l2.76,2.75L53.6,3.11a7.13,7.13,0,0,1,2.81-1.7A3,3,0,0,0,53.9,0Zm3.06,14.48-2.76,2.76a7.1,7.1,0,0,1-3.35,1.86v5.31H57V19.1a7.15,7.15,0,0,1-3.35-1.86Z"/><path class="cls-2" d="M67.12,4.07H58.63a4.06,4.06,0,0,0-2.87,1.19l-9.82,9.82h0a4.1,4.1,0,0,1-2.88,1.19H34.58a6.1,6.1,0,1,1,0-12.2h8.48a4.1,4.1,0,0,1,2.88,1.19l9.82,9.82h0a4.06,4.06,0,0,0,2.87,1.19h8.49a6.1,6.1,0,1,0,0-12.2Z"/><path class="cls-1" d="M108.81,113.9a6.1,6.1,0,0,1-12.2,0c0-3.37,6.1-10.17,6.1-10.17S108.81,110.53,108.81,113.9Z"/><path class="cls-2" d="M113.9,95.59H91.58l0-8.13h22.34Z"/></g></g></svg>