<svg xmlns="http://www.w3.org/2000/svg" viewBox="0 0 831.38 831.38"><defs><style>.cls-1{fill:#13c4a3;}</style></defs><g id="Layer_2" data-name="Layer 2"><g id="Layer_1-2" data-name="Layer 1"><path class="cls-1" d="M124.44,191.18l45.2,29.73c1.73,1.13,1.63,2.26.74,3.61l-4.75,7.22c-.89,1.35-1.88,1.88-3.61.75l-25.49-16.77,8.21,16.17a3.3,3.3,0,0,1,.15,3.22l-2.47,3.76c-.75,1.13-2.12,1.09-3,1.07l-18.15-1.06,25.49,16.77c1.73,1.13,1.64,2.26.75,3.61l-4.9,7.44c-.89,1.36-1.89,1.89-3.62.75L93.83,237.73c-1.35-.89-1.88-1.89-.74-3.62L98,226.67c1.68-2.56,3.54-1.77,4.83-1.78l25.28,1.87-11.68-22.55c-.55-1.12-2-2.58-.33-5.06l4.75-7.22C122,190.2,123.09,190.29,124.44,191.18Z"/><path class="cls-1" d="M220.76,160.83l4.91,5.5c1.08,1.21,1.33,2.31-.21,3.69l-30.1,26.83c-1.55,1.38-2.61,1-3.69-.21l-35.93-40.31c-1.08-1.21-1.34-2.31.21-3.69l29-25.81c1.54-1.38,2.6-1,3.68.21l5,5.58c1.08,1.21,1.34,2.31-.21,3.68l-20.29,18.09,6.53,7.32,18-16.05c1.54-1.37,2.6-1,3.68.21l4.67,5.24c1.08,1.21,1.34,2.31-.21,3.69l-18,16,7.91,8.87,21.43-19.11C218.62,159.24,219.68,159.62,220.76,160.83Z"/><path class="cls-1" d="M275.94,75.47l24.31,48.32c.93,1.85.29,2.77-1.16,3.5l-7.72,3.89c-1.44.72-2.57.69-3.5-1.16l-13.71-27.26-1,18.12a3.32,3.32,0,0,1-1.49,2.86l-4,2c-1.2.61-2.37-.11-3.1-.55l-15.2-10,13.72,27.26c.93,1.85.28,2.77-1.16,3.5l-8,4c-1.45.72-2.58.69-3.51-1.16l-24.31-48.32c-.72-1.45-.69-2.58,1.16-3.51l8-4c2.73-1.38,4,.23,5.08.87l21,14.24,1.14-25.36c.08-1.25-.41-3.22,2.25-4.56l7.72-3.88C274.28,73.38,275.21,74,275.94,75.47Z"/><path class="cls-1" d="M373.76,88.48c2.82,13.94-9.2,22.62-19.69,24.74S329.3,112,326.47,98.06l-4.21-20.82c-2.82-13.94,9-22.58,19.51-24.71s25,1.2,27.77,15.13ZM355.94,71.7c-1.14-5.64-5.86-8.08-11.68-6.9s-9.13,5.24-8,10.89L340,94c1.14,5.64,5.86,8.08,11.59,6.92s9.22-5.26,8.08-10.91Z"/><path class="cls-1" d="M452.62,89.41c-.52,12.76-10.84,18.47-24.69,17.9-11.24-.46-23.92-7.46-23.41-20,.09-2.07.65-2.5,2.71-2.41l8.73.35c2.06.09,3,.4,3.13,2.65a6.15,6.15,0,0,0,1.56,3.76c1.71,2.23,5.36,3.19,8.69,3.33,4.85.2,8.86-.72,9.06-5.76s-7.79-5.45-15.34-8.19c-9-3.25-17.18-7.19-16.71-18.61.48-11.69,11.32-17,22.58-17,11.42.47,23.71,6.2,23.22,18.07-.09,2.15-.64,2.49-2.71,2.41l-8.81-.36c-1.71-.07-1.93-1.34-2.33-2.53a7.32,7.32,0,0,0-1.78-2.77c-1.64-1.69-4.84-2.64-7.54-2.75-3-.12-8,.85-8.13,4.9-.22,5.48,12.92,8,16.45,9.59C443.7,74.18,453.12,77.18,452.62,89.41Z"/><path class="cls-1" d="M527.6,114.88,525.55,122c-.45,1.56-1.24,2.36-3.23,1.79l-38.74-11.18c-2-.57-2.23-1.67-1.79-3.23l15-51.88c.45-1.56,1.25-2.36,3.24-1.79l37.27,10.76c2,.57,2.23,1.67,1.78,3.23L537,76.84c-.45,1.56-1.24,2.36-3.23,1.79l-26.12-7.54-2.72,9.43,23.18,6.69c2,.57,2.23,1.67,1.78,3.23l-1.94,6.74c-.45,1.56-1.25,2.36-3.23,1.79l-23.18-6.69-3.29,11.41,27.58,8C527.8,112.23,528,113.33,527.6,114.88Z"/><path class="cls-1" d="M596.61,150.67l-3.7,6.38c-.82,1.41-1.78,2-3.57,1l-34.89-20.22c-1.79-1-1.76-2.16-1-3.57L580.57,87.5c.81-1.41,1.78-2,3.57-1L617.7,106c1.79,1,1.77,2.17.95,3.57L614.91,116c-.81,1.4-1.78,2-3.57,1l-23.52-13.62-4.92,8.49,20.88,12.09c1.79,1,1.76,2.16,1,3.57l-3.52,6.07c-.82,1.4-1.78,2-3.57,1l-20.87-12.09-6,10.28,24.85,14.39C597.45,148.14,597.42,149.27,596.61,150.67Z"/><path class="cls-1" d="M676.16,182.22l-13,13.44c-9.83,10.14-23.79,5.13-31.47-2.33l-14.47-14c-1.49-1.44-1.18-2.52-.06-3.69l37.6-38.75c1.13-1.16,2.21-1.5,3.7-.06l14.46,14C680.57,158.29,685.93,172.14,676.16,182.22Zm-11-8.93c4-4.07,3.3-9.35-1-13.48l-6.2-6-23.81,24.55,6.2,6c4.26,4.14,9.49,4.7,13.5.56Z"/><path class="cls-1" d="M706,262.16c-10.84,6.77-21.37,1.47-28.72-10.29-6-9.54-7.33-24,3.35-30.64,1.76-1.1,2.43-.88,3.52.88l4.63,7.4c1.1,1.76,1.39,2.74-.42,4.08a6.21,6.21,0,0,0-2.22,3.41c-.88,2.67.39,6.23,2.15,9.05,2.58,4.13,5.59,6.91,9.87,4.24s.1-9.51-1.89-17.29c-2.38-9.23-3.76-18.24,5.93-24.3,9.93-6.2,20.44-.24,26.78,9.06,6.06,9.69,8.26,23.07-1.81,29.36-1.83,1.15-2.42.88-3.52-.87L719,238.77c-.9-1.45,0-2.35.78-3.35a7.41,7.41,0,0,0,1.28-3c.47-2.3-.56-5.48-2-7.77-1.57-2.52-5.19-6.1-8.62-4-4.66,2.91.67,15.18,1.36,19C713.55,246.2,716.39,255.67,706,262.16Z"/><path class="cls-1" d="M124.44,191.18l45.2,29.73c1.73,1.13,1.63,2.26.74,3.61l-4.75,7.22c-.89,1.35-1.88,1.88-3.61.75l-25.49-16.77,8.21,16.17a3.3,3.3,0,0,1,.15,3.22l-2.47,3.76c-.75,1.13-2.12,1.09-3,1.07l-18.15-1.06,25.49,16.77c1.73,1.13,1.64,2.26.75,3.61l-4.9,7.44c-.89,1.36-1.89,1.89-3.62.75L93.83,237.73c-1.35-.89-1.88-1.89-.74-3.62L98,226.67c1.68-2.56,3.54-1.77,4.83-1.78l25.28,1.87-11.68-22.55c-.55-1.12-2-2.58-.33-5.06l4.75-7.22C122,190.2,123.09,190.29,124.44,191.18Z"/><path class="cls-1" d="M220.76,160.83l4.91,5.5c1.08,1.21,1.33,2.31-.21,3.69l-30.1,26.83c-1.55,1.38-2.61,1-3.69-.21l-35.93-40.31c-1.08-1.21-1.34-2.31.21-3.69l29-25.81c1.54-1.38,2.6-1,3.68.21l5,5.58c1.08,1.21,1.34,2.31-.21,3.68l-20.29,18.09,6.53,7.32,18-16.05c1.54-1.37,2.6-1,3.68.21l4.67,5.24c1.08,1.21,1.34,2.31-.21,3.69l-18,16,7.91,8.87,21.43-19.11C218.62,159.24,219.68,159.62,220.76,160.83Z"/><path class="cls-1" d="M275.94,75.47l24.31,48.32c.93,1.85.29,2.77-1.16,3.5l-7.72,3.89c-1.44.72-2.57.69-3.5-1.16l-13.71-27.26-1,18.12a3.32,3.32,0,0,1-1.49,2.86l-4,2c-1.2.61-2.37-.11-3.1-.55l-15.2-10,13.72,27.26c.93,1.85.28,2.77-1.16,3.5l-8,4c-1.45.72-2.58.69-3.51-1.16l-24.31-48.32c-.72-1.45-.69-2.58,1.16-3.51l8-4c2.73-1.38,4,.23,5.08.87l21,14.24,1.14-25.36c.08-1.25-.41-3.22,2.25-4.56l7.72-3.88C274.28,73.38,275.21,74,275.94,75.47Z"/><path class="cls-1" d="M373.76,88.48c2.82,13.94-9.2,22.62-19.69,24.74S329.3,112,326.47,98.06l-4.21-20.82c-2.82-13.94,9-22.58,19.51-24.71s25,1.2,27.77,15.13ZM355.94,71.7c-1.14-5.64-5.86-8.08-11.68-6.9s-9.13,5.24-8,10.89L340,94c1.14,5.64,5.86,8.08,11.59,6.92s9.22-5.26,8.08-10.91Z"/><path class="cls-1" d="M452.62,89.41c-.52,12.76-10.84,18.47-24.69,17.9-11.24-.46-23.92-7.46-23.41-20,.09-2.07.65-2.5,2.71-2.41l8.73.35c2.06.09,3,.4,3.13,2.65a6.15,6.15,0,0,0,1.56,3.76c1.71,2.23,5.36,3.19,8.69,3.33,4.85.2,8.86-.72,9.06-5.76s-7.79-5.45-15.34-8.19c-9-3.25-17.18-7.19-16.71-18.61.48-11.69,11.32-17,22.58-17,11.42.47,23.71,6.2,23.22,18.07-.09,2.15-.64,2.49-2.71,2.41l-8.81-.36c-1.71-.07-1.93-1.34-2.33-2.53a7.32,7.32,0,0,0-1.78-2.77c-1.64-1.69-4.84-2.64-7.54-2.75-3-.12-8,.85-8.13,4.9-.22,5.48,12.92,8,16.45,9.59C443.7,74.18,453.12,77.18,452.62,89.41Z"/><path class="cls-1" d="M527.6,114.88,525.55,122c-.45,1.56-1.24,2.36-3.23,1.79l-38.74-11.18c-2-.57-2.23-1.67-1.79-3.23l15-51.88c.45-1.56,1.25-2.36,3.24-1.79l37.27,10.76c2,.57,2.23,1.67,1.78,3.23L537,76.84c-.45,1.56-1.24,2.36-3.23,1.79l-26.12-7.54-2.72,9.43,23.18,6.69c2,.57,2.23,1.67,1.78,3.23l-1.94,6.74c-.45,1.56-1.25,2.36-3.23,1.79l-23.18-6.69-3.29,11.41,27.58,8C527.8,112.23,528,113.33,527.6,114.88Z"/><path class="cls-1" d="M596.61,150.67l-3.7,6.38c-.82,1.41-1.78,2-3.57,1l-34.89-20.22c-1.79-1-1.76-2.16-1-3.57L580.57,87.5c.81-1.41,1.78-2,3.57-1L617.7,106c1.79,1,1.77,2.17.95,3.57L614.91,116c-.81,1.4-1.78,2-3.57,1l-23.52-13.62-4.92,8.49,20.88,12.09c1.79,1,1.76,2.16,1,3.57l-3.52,6.07c-.82,1.4-1.78,2-3.57,1l-20.87-12.09-6,10.28,24.85,14.39C597.45,148.14,597.42,149.27,596.61,150.67Z"/><path class="cls-1" d="M676.16,182.22l-13,13.44c-9.83,10.14-23.79,5.13-31.47-2.33l-14.47-14c-1.49-1.44-1.18-2.52-.06-3.69l37.6-38.75c1.13-1.16,2.21-1.5,3.7-.06l14.46,14C680.57,158.29,685.93,172.14,676.16,182.22Zm-11-8.93c4-4.07,3.3-9.35-1-13.48l-6.2-6-23.81,24.55,6.2,6c4.26,4.14,9.49,4.7,13.5.56Z"/><path class="cls-1" d="M706,262.16c-10.84,6.77-21.37,1.47-28.72-10.29-6-9.54-7.33-24,3.35-30.64,1.76-1.1,2.43-.88,3.52.88l4.63,7.4c1.1,1.76,1.39,2.74-.42,4.08a6.21,6.21,0,0,0-2.22,3.41c-.88,2.67.39,6.23,2.15,9.05,2.58,4.13,5.59,6.91,9.87,4.24s.1-9.51-1.89-17.29c-2.38-9.23-3.76-18.24,5.93-24.3,9.93-6.2,20.44-.24,26.78,9.06,6.06,9.69,8.26,23.07-1.81,29.36-1.83,1.15-2.42.88-3.52-.87L719,238.77c-.9-1.45,0-2.35.78-3.35a7.41,7.41,0,0,0,1.28-3c.47-2.3-.56-5.48-2-7.77-1.57-2.52-5.19-6.1-8.62-4-4.66,2.91.67,15.18,1.36,19C713.55,246.2,716.39,255.67,706,262.16Z"/><path class="cls-1" d="M179.1,663l-4.48,4.38c-4.72,4.07-11.1,1.49-14.54-2s-6.27-10.12-1.42-14.86l7.6-7.42c4.88-4.77,11.51-2.13,15.07,1.52,3.77,3.86,5.89,10.48,1.75,14.52-.74.73-1,.66-1.74,0l-2.92-3c-.85-.86-.11-1.34.17-1.92.63-1.27.47-3.29-1.56-5.36a4.46,4.46,0,0,0-6.65-.14l-6.21,6.07c-2,1.93-1.79,4.41.2,6.44s4.28,2.53,6.66.2l-2.72-2.78a1.07,1.07,0,0,1,0-1.77l2.41-2.35a1.07,1.07,0,0,1,1.77,0l6.61,6.76A1.07,1.07,0,0,1,179.1,663Z"/><path class="cls-1" d="M195.61,690.54l-2.19,2.62a1.07,1.07,0,0,1-1.77.15l-9.37-7.83a1.07,1.07,0,0,1-.16-1.77l2.19-2.62a1.07,1.07,0,0,1,1.76-.15l2.09,1.74L198.74,670l-2-1.69a1.07,1.07,0,0,1-.16-1.77l2.24-2.68a1.08,1.08,0,0,1,1.77-.16l9.21,7.7a1.08,1.08,0,0,1,.16,1.77l-2.25,2.68a1.07,1.07,0,0,1-1.76.16l-2-1.66L193.36,687l2.09,1.74A1.07,1.07,0,0,1,195.61,690.54Z"/><path class="cls-1" d="M241.69,695.88,219.53,712.1c-1.06.64-1.41.62-2.19.08l-3.43-2.32c-.79-.54-.94-.85-.74-2.07L220,681.17c.14-.58.67-1.06,1.35-.6l4,2.69c.93.63,1,1.09.69,2.14l-5.17,18.09L235.69,692c.86-.67,1.31-.78,2.27-.13l3.79,2.57A.83.83,0,0,1,241.69,695.88Z"/><path class="cls-1" d="M262.55,732.8l-1.64,3.14a1.07,1.07,0,0,1-1.69.53l-17.13-9a1.07,1.07,0,0,1-.53-1.69l12-22.95a1.07,1.07,0,0,1,1.69-.52L271.77,711a1.07,1.07,0,0,1,.53,1.69l-1.67,3.17a1.07,1.07,0,0,1-1.69.53l-11.55-6.06-2.18,4.17,10.25,5.37a1.07,1.07,0,0,1,.52,1.69l-1.56,3a1.07,1.07,0,0,1-1.69.52l-10.25-5.37-2.65,5,12.2,6.4A1.06,1.06,0,0,1,262.55,732.8Z"/><path class="cls-1" d="M319.89,754.57l-1.07,3.37a1.08,1.08,0,0,1-1.58.82l-17.12-5.43a1.07,1.07,0,0,1-.82-1.57l7.83-24.7a1.07,1.07,0,0,1,1.57-.82l4.08,1.29c.74.24,1.11.63.81,1.58l-6.38,20.13L319.07,753A1.08,1.08,0,0,1,319.89,754.57Z"/><path class="cls-1" d="M349.45,761.56l-.7,3.34c-.17.76-.52,1.17-1.49,1l-12-2.53c-1-.2-1.12-.72-1-1.48l.7-3.34c.17-.76.52-1.17,1.49-1l2.66.57L342.61,742l-2.58-.55c-1-.2-1.13-.72-1-1.48l.73-3.43c.16-.76.51-1.17,1.48-1L353,738c1,.21,1.12.73,1,1.49l-.72,3.42c-.16.76-.51,1.17-1.48,1l-2.54-.54-3.42,16.14,2.67.56C349.46,760.28,349.61,760.8,349.45,761.56Z"/><path class="cls-1" d="M390.31,744.44l-.39,3.52c-.08.77-.39,1.21-1.38,1.1l-13-1.42-.55,5,11.16,1.23c1,.11,1.19.61,1.1,1.38l-.37,3.39c-.09.77-.39,1.22-1.38,1.11l-11.16-1.23-1.11,10c-.12,1.12-.4,1.26-1.39,1.15l-4.25-.47c-1-.1-1.19-.6-1.1-1.38l2.84-25.75c.08-.77.39-1.22,1.38-1.11l18.45,2C390.19,743.16,390.4,743.67,390.31,744.44Z"/><path class="cls-1" d="M426.92,767.77l-.06,3.54c0,.77-.28,1.24-1.27,1.23l-19.35-.32c-1,0-1.24-.49-1.23-1.27l.42-25.91c0-.78.28-1.25,1.27-1.23l18.61.3c1,0,1.25.5,1.23,1.27l-.05,3.59c0,.78-.28,1.25-1.28,1.23l-13-.21-.07,4.71,11.57.18c1,0,1.24.5,1.23,1.28l0,3.36c0,.78-.28,1.25-1.28,1.24L412,760.57l-.09,5.7,13.77.22C426.68,766.51,426.93,767,426.92,767.77Z"/><path class="cls-1" d="M483.88,738.34l.62,3.53c.14.77,0,1.28-1,1.45L477,744.46l3.63,20.76c.17,1-.25,1.32-1,1.45l-4.21.74c-.76.13-1.28,0-1.45-1l-3.62-20.76-6.56,1.14c-1,.17-1.31-.25-1.45-1l-.61-3.53c-.14-.76,0-1.28,1-1.45l19.74-3.44C483.41,737.15,483.75,737.58,483.88,738.34Z"/><path class="cls-1" d="M524.13,746.22c1.91,6.55-3.49,11.17-8.42,12.61s-11.89.4-13.8-6.15l-2.85-9.78c-1.91-6.55,3.41-11.16,8.34-12.59s12-.43,13.88,6.12Zm-9.19-7.31c-.77-2.66-3.12-3.64-5.86-2.84s-4.16,2.87-3.38,5.53l2.51,8.62c.77,2.65,3.12,3.63,5.82,2.85s4.19-2.89,3.42-5.54Z"/><path class="cls-1" d="M582,726.1l1.58,3.17A1.07,1.07,0,0,1,583,731l-16.09,8a1.07,1.07,0,0,1-1.68-.57l-11.53-23.2a1.07,1.07,0,0,1,.57-1.68l3.83-1.91a1.07,1.07,0,0,1,1.68.57l9.39,18.91,11.14-5.53A1.07,1.07,0,0,1,582,726.1Z"/><path class="cls-1" d="M613.14,702c3.68,5.74-.18,11.71-4.5,14.49s-11.29,3.76-15-2L588.15,706c-3.69-5.74.1-11.67,4.43-14.45s11.36-3.8,15,1.94Zm-10.89-4.4c-1.49-2.33-4-2.6-6.43-1.06s-3.17,3.94-1.67,6.27l4.85,7.55c1.5,2.33,4,2.6,6.39,1.08s3.21-4,1.72-6.28Z"/><path class="cls-1" d="M633.9,663l9.19,25.87c.31,1.2.19,1.52-.55,2.13l-3.21,2.62c-.73.6-1.08.65-2.19.11L613.6,679.53a.84.84,0,0,1-.19-1.47l3.71-3c.87-.71,1.32-.63,2.25,0l15.85,10.13-6.79-17.53c-.39-1-.37-1.48.53-2.22l3.55-2.89C633.14,662,633.71,662.38,633.9,663Z"/><path class="cls-1" d="M675.3,653.52l2.53,2.48a1.07,1.07,0,0,1,0,1.77L664.32,671.6a1.07,1.07,0,0,1-1.77,0L644,653.5a1.06,1.06,0,0,1,0-1.77l13-13.31a1.07,1.07,0,0,1,1.77,0l2.57,2.51a1.07,1.07,0,0,1,0,1.77L652.26,652l3.36,3.29,8.09-8.27a1.07,1.07,0,0,1,1.77,0l2.41,2.36a1.06,1.06,0,0,1,0,1.77l-8.09,8.27,4.07,4,9.64-9.85A1.07,1.07,0,0,1,675.3,653.52Z"/><path class="cls-1" d="M798.71,253.88a417,417,0,1,0,32.67,161.81A414.48,414.48,0,0,0,798.71,253.88Zm-383,557.5C197.51,811.38,20,633.88,20,415.69S197.51,20,415.69,20,811.38,197.51,811.38,415.69,633.88,811.38,415.69,811.38Z"/><path class="cls-1" d="M623.06,208.33A293.27,293.27,0,1,0,709,415.69,291.36,291.36,0,0,0,623.06,208.33Zm-207.37-65.9C566.37,142.43,689,265,689,415.69A273,273,0,0,1,681,481.06H425.69V427.24a104.53,104.53,0,0,0,94.38-103.9V239.19h-10a104.3,104.3,0,0,0-84.38,43V229h-.14A62.13,62.13,0,0,0,363.64,171h-10V229a62.17,62.17,0,0,0,52.05,61.25v66.13a104.32,104.32,0,0,0-84.38-43h-10v10a104.53,104.53,0,0,0,94.38,103.9v53.82H150.36a272.52,272.52,0,0,1-7.93-65.37C142.43,265,265,142.43,415.69,142.43Zm90,398.61V673.71a271.64,271.64,0,0,1-80,15V541a40,40,0,0,1,80,0Zm-140-40a40,40,0,0,1,40,40V688.75a271.7,271.7,0,0,1-80-15V541A40,40,0,0,1,365.71,501.06Zm40-231.25A42.13,42.13,0,0,1,373.64,229V192.25a42.1,42.1,0,0,1,32.05,40.84Zm20,73.75a84.5,84.5,0,0,1,74.38-83.78v63.56a84.51,84.51,0,0,1-74.38,83.78ZM405,407.05a84.55,84.55,0,0,1-73-73A84.57,84.57,0,0,1,405,407.05Zm-248.91,94H321a59.78,59.78,0,0,0-15.32,40V665.82A274.67,274.67,0,0,1,156.11,501.06ZM525.66,665.82V541a59.73,59.73,0,0,0-15.32-40H675.28A274.71,274.71,0,0,1,525.66,665.82Z"/><circle class="cls-1" cx="79.79" cy="491.06" r="15"/><circle class="cls-1" cx="751.6" cy="491.06" r="15"/></g></g></svg>